ffmpeg started on 2015-06-27 at 18:08:43
Report written to "ffv1_test_pixfmt-yuva444p16le_coder-1_level-3.txt"
Command line:
ffmpeg -y -f lavfi -i mandelbrot -c:v ffv1 -pix_fmt yuva444p16le -level 3 -coder 1 -t 1 ffv1_test_pixfmt-yuva444p16le_coder-1_level-3.mkv
ffmpeg version 2.6.3 Copyright (c) 2000-2015 the FFmpeg developers
  built with Apple LLVM version 6.1.0 (clang-602.0.49) (based on LLVM 3.6.0svn)
  configuration: --prefix=/usr/local/Cellar/ffmpeg/2.6.3 --enable-shared --enable-pthreads --enable-gpl --enable-version3 --enable-hardcoded-tables --enable-avresample --cc=clang --host-cflags= --host-ldflags= --enable-libx264 --enable-libmp3lame --enable-libvo-aacenc --enable-libxvid --enable-libfaac --enable-ffplay --enable-nonfree --enable-vda
  libavutil      54. 20.100 / 54. 20.100
  libavcodec     56. 26.100 / 56. 26.100
  libavformat    56. 25.101 / 56. 25.101
  libavdevice    56.  4.100 / 56.  4.100
  libavfilter     5. 11.102 /  5. 11.102
  libavresample   2.  1.  0 /  2.  1.  0
  libswscale      3.  1.101 /  3.  1.101
  libswresample   1.  1.100 /  1.  1.100
  libpostproc    53.  3.100 / 53.  3.100
Splitting the commandline.
Reading option '-y' ... matched as option 'y' (overwrite output files) with argument '1'.
Reading option '-f' ... matched as option 'f' (force format) with argument 'lavfi'.
Reading option '-i' ... matched as input file with argument 'mandelbrot'.
Reading option '-c:v' ... matched as option 'c' (codec name) with argument 'ffv1'.
Reading option '-pix_fmt' ... matched as option 'pix_fmt' (set pixel format) with argument 'yuva444p16le'.
Reading option '-level' ... matched as AVOption 'level' with argument '3'.
Reading option '-coder' ... matched as AVOption 'coder' with argument '1'.
Reading option '-t' ... matched as option 't' (record or transcode "duration" seconds of audio/video) with argument '1'.
Reading option 'ffv1_test_pixfmt-yuva444p16le_coder-1_level-3.mkv' ... matched as output file.
Finished splitting the commandline.
Parsing a group of options: global .
Applying option y (overwrite output files) with argument 1.
Successfully parsed a group of options.
Parsing a group of options: input file mandelbrot.
Applying option f (force format) with argument lavfi.
Successfully parsed a group of options.
Opening an input file: mandelbrot.
detected 4 logical cores
[AVFilterGraph @ 0x7fca93601f60] query_formats: 2 queried, 1 merged, 0 already done, 0 delayed
[lavfi @ 0x7fca9501bc00] All info found
Input #0, lavfi, from 'mandelbrot':
  Duration: N/A, start: 0.000000, bitrate: N/A
    Stream #0:0, 1, 1/25: Video: rawvideo (RGBA / 0x41424752), rgba, 640x480 [SAR 1:1 DAR 4:3], 25 tbr, 25 tbn, 25 tbc
Successfully opened the file.
Parsing a group of options: output file ffv1_test_pixfmt-yuva444p16le_coder-1_level-3.mkv.
Applying option c:v (codec name) with argument ffv1.
Applying option pix_fmt (set pixel format) with argument yuva444p16le.
Applying option t (record or transcode "duration" seconds of audio/video) with argument 1.
Successfully parsed a group of options.
Opening an output file: ffv1_test_pixfmt-yuva444p16le_coder-1_level-3.mkv.
Successfully opened the file.
[graph 0 input from stream 0:0 @ 0x7fca934152e0] Setting 'video_size' to value '640x480'
[graph 0 input from stream 0:0 @ 0x7fca934152e0] Setting 'pix_fmt' to value '28'
[graph 0 input from stream 0:0 @ 0x7fca934152e0] Setting 'time_base' to value '1/25'
[graph 0 input from stream 0:0 @ 0x7fca934152e0] Setting 'pixel_aspect' to value '1/1'
[graph 0 input from stream 0:0 @ 0x7fca934152e0] Setting 'sws_param' to value 'flags=2'
[graph 0 input from stream 0:0 @ 0x7fca934152e0] Setting 'frame_rate' to value '25/1'
[graph 0 input from stream 0:0 @ 0x7fca934152e0] w:640 h:480 pixfmt:rgba tb:1/25 fr:25/1 sar:1/1 sws_param:flags=2
[format @ 0x7fca93415800] compat: called with args=[yuva444p16le]
[format @ 0x7fca93415800] Setting 'pix_fmts' to value 'yuva444p16le'
[auto-inserted scaler 0 @ 0x7fca934163c0] Setting 'flags' to value '0x4'
[auto-inserted scaler 0 @ 0x7fca934163c0] w:iw h:ih flags:'0x4' interl:0
[format @ 0x7fca93415800] auto-inserting filter 'auto-inserted scaler 0' between the filter 'Parsed_null_0' and the filter 'format'
[AVFilterGraph @ 0x7fca93700380] query_formats: 5 queried, 3 merged, 1 already done, 0 delayed
[auto-inserted scaler 0 @ 0x7fca934163c0] w:640 h:480 fmt:rgba sar:1/1 -> w:640 h:480 fmt:yuva444p16le sar:1/1 flags:0x4
[ffv1 @ 0x7fca94007a00] Storing alpha plane, this will require a recent FFV1 decoder to playback!
Output #0, matroska, to 'ffv1_test_pixfmt-yuva444p16le_coder-1_level-3.mkv':
  Metadata:
    encoder         : Lavf56.25.101
    Stream #0:0, 0, 1/1000: Video: ffv1 (FFV1 / 0x31564646), yuva444p16le, 640x480 [SAR 1:1 DAR 4:3], q=2-31, 200 kb/s, 25 fps, 1k tbn, 25 tbc
    Metadata:
      encoder         : Lavc56.26.100 ffv1
Stream mapping:
  Stream #0:0 -> #0:0 (rawvideo (native) -> ffv1 (native))
Press [q] to stop, [?] for help
Cliping frame in rate conversion by 0.000008
[matroska @ 0x7fca94006e00] Writing block at offset 850, size 572347, pts 0, dts 0, duration 40, flags 128
[matroska @ 0x7fca94006e00] Writing block at offset 573205, size 565369, pts 40, dts 40, duration 40, flags 0
[matroska @ 0x7fca94006e00] Writing block at offset 1138582, size 569643, pts 80, dts 80, duration 40, flags 0
[matroska @ 0x7fca94006e00] Writing block at offset 1708233, size 575315, pts 120, dts 120, duration 40, flags 0
[matroska @ 0x7fca94006e00] Writing block at offset 2283556, size 583483, pts 160, dts 160, duration 40, flags 0
[matroska @ 0x7fca94006e00] Writing block at offset 2867047, size 589974, pts 200, dts 200, duration 40, flags 0
[matroska @ 0x7fca94006e00] Writing block at offset 3457029, size 598397, pts 240, dts 240, duration 40, flags 0
[matroska @ 0x7fca94006e00] Writing block at offset 4055434, size 606734, pts 280, dts 280, duration 40, flags 0
[matroska @ 0x7fca94006e00] Writing block at offset 4662176, size 616912, pts 320, dts 320, duration 40, flags 0
[matroska @ 0x7fca94006e00] Starting new cluster at offset 5279096 bytes, pts 360dts 360
[matroska @ 0x7fca94006e00] Writing block at offset 5279112, size 623595, pts 360, dts 360, duration 40, flags 0
frame=   10 fps=0.0 q=0.0 size=    5764kB time=00:00:00.40 bitrate=118054.3kbits/s    [matroska @ 0x7fca94006e00] Writing block at offset 5902715, size 632940, pts 400, dts 400, duration 40, flags 0
[matroska @ 0x7fca94006e00] Writing block at offset 6535663, size 640834, pts 440, dts 440, duration 40, flags 0
[matroska @ 0x7fca94006e00] Starting new cluster at offset 7176505 bytes, pts 480dts 480
[matroska @ 0x7fca94006e00] Writing block at offset 7176521, size 657606, pts 480, dts 480, duration 40, flags 128
[matroska @ 0x7fca94006e00] Writing block at offset 7834135, size 658519, pts 520, dts 520, duration 40, flags 0
[matroska @ 0x7fca94006e00] Writing block at offset 8492662, size 665608, pts 560, dts 560, duration 40, flags 0
[matroska @ 0x7fca94006e00] Writing block at offset 9158278, size 670775, pts 600, dts 600, duration 40, flags 0
[matroska @ 0x7fca94006e00] Writing block at offset 9829061, size 674982, pts 640, dts 640, duration 40, flags 0
[matroska @ 0x7fca94006e00] Writing block at offset 10504051, size 681309, pts 680, dts 680, duration 40, flags 0
frame=   18 fps= 17 q=0.0 size=   10923kB time=00:00:00.72 bitrate=124281.9kbits/s    [matroska @ 0x7fca94006e00] Writing block at offset 11185368, size 686422, pts 720, dts 720, duration 40, flags 0
[matroska @ 0x7fca94006e00] Writing block at offset 11871798, size 692047, pts 760, dts 760, duration 40, flags 0
[matroska @ 0x7fca94006e00] Starting new cluster at offset 12563853 bytes, pts 800dts 800
[matroska @ 0x7fca94006e00] Writing block at offset 12563869, size 694598, pts 800, dts 800, duration 40, flags 0
[matroska @ 0x7fca94006e00] Writing block at offset 13258475, size 700586, pts 840, dts 840, duration 40, flags 0
[matroska @ 0x7fca94006e00] Writing block at offset 13959069, size 704189, pts 880, dts 880, duration 40, flags 0
[matroska @ 0x7fca94006e00] Writing block at offset 14663266, size 706354, pts 920, dts 920, duration 40, flags 0
[matroska @ 0x7fca94006e00] Starting new cluster at offset 15369628 bytes, pts 960dts 960
[matroska @ 0x7fca94006e00] Writing block at offset 15369644, size 724737, pts 960, dts 960, duration 40, flags 128
[output stream 0:0 @ 0x7fca934156a0] EOF on sink link output stream 0:0:default.
frame=   25 fps= 16 q=0.0 size=   15717kB time=00:00:01.00 bitrate=128755.1kbits/s    No more output streams to write to, finishing.
[matroska @ 0x7fca94006e00] end duration = 1000
frame=   25 fps= 16 q=0.0 Lsize=   15717kB time=00:00:01.00 bitrate=128755.6kbits/s    
video:15716kB audio:0kB subtitle:0kB other streams:0kB global headers:0kB muxing overhead: 0.007338%
Input file #0 (mandelbrot):
  Input stream #0:0 (video): 26 packets read (31948800 bytes); 26 frames decoded; 
  Total: 26 packets (31948800 bytes) demuxed
Output file #0 (ffv1_test_pixfmt-yuva444p16le_coder-1_level-3.mkv):
  Output stream #0:0 (video): 25 frames encoded; 25 packets muxed (16093275 bytes); 
  Total: 25 packets (16093275 bytes) muxed
26 frames successfully decoded, 0 decoding errors
[AVIOContext @ 0x7fca937002a0] Statistics: 40 seeks, 534 writeouts
